PathFileType	4	(X/Y/Z)	Patient4_TMGait_0pt3_02_left_05.trc.trc
DataRate	CameraRate	NumFrames	NumMarkers	Units	OrigDataRate	OrigDataStartFrame	OrigNumFrames
47.619047619048	47.619047619048	6	33	mm	47.619047619048	1	       141
Frame#	Time	Sacral			L.Shoulder			Chest			R.Shoulder			Neck			R.ASIS			L.ASIS			R.Thigh.Superior			R.Thigh.Lateral			R.Thigh.Inferior			R.Patella			L.Thigh.Superior			L.Thigh.Lateral			L.Thigh.Inferior			L.Patella			L.Shank.Superior			L.Shank.Lateral			L.Shank.Inferior			R.Shank.Superior			R.Shank.Lateral			R.Shank.Inferior			R.Heel			R.Midfoot.Superior			R.Midfoot.Lateral			R.Toe			L.Heel			L.Midfoot.Lateral			L.Midfoot.Superior			L.Toe			L.Elbow			L.Wrist			R.Elbow			R.Wrist			
		X1	Y1	Z1	X2	Y2	Z2	X3	Y3	Z3	X4	Y4	Z4	X5	Y5	Z5	X6	Y6	Z6	X7	Y7	Z7	X8	Y8	Z8	X9	Y9	Z9	X10	Y10	Z10	X11	Y11	Z11	X12	Y12	Z12	X13	Y13	Z13	X14	Y14	Z14	X15	Y15	Z15	X16	Y16	Z16	X17	Y17	Z17	X18	Y18	Z18	X19	Y19	Z19	X20	Y20	Z20	X21	Y21	Z21	X22	Y22	Z22	X23	Y23	Z23	X24	Y24	Z24	X25	Y25	Z25	X26	Y26	Z26	X27	Y27	Z27	X28	Y28	Z28	X29	Y29	Z29	X30	Y30	Z30	X31	Y31	Z31	X32	Y32	Z32	X33	Y33	Z33	

1	9.260000000000	740.065401428933	1005.806785236679	555.272821716175	941.123053344550	1434.243141024093	381.651982149011	1026.413200779784	1363.274219666747	551.490337847902	927.750330669880	1438.514369913713	716.164196024666	909.176251733255	1495.436553156129	538.612874295899	968.405216959661	941.659596603098	678.620839770859	958.457025443049	960.367650563984	404.935493278525	1013.486430064224	741.375730242005	644.422785882554	929.838325087122	628.024945578296	693.825182715262	1012.460952572247	580.303994022257	615.875340518444	1013.653552890009	490.581528872571	618.887314895903	1018.259417474397	754.058759499256	429.367771419259	948.833657511698	633.423140970977	355.879463077684	1040.183080400661	555.250475427688	418.550126182449	1035.166543715871	465.600541638386	411.538543500148	959.056673113058	410.863812836437	403.004216163179	814.505854774950	388.709106764522	350.625354642167	782.686105963593	262.280616506718	404.295945455312	980.616253858771	402.666672834362	619.290448763412	902.778110887142	298.669935205901	671.951073848895	944.970766733207	205.791376236016	606.502312009990	805.437965931934	44.332842682319	563.238513538233	976.675893324301	97.589343741742	608.109383610580	885.552970116951	37.670505126527	641.518579244912	1093.979999396396	42.167635326105	640.574137760833	582.968358106320	222.717172961647	436.361040877619	637.237040378948	169.648672612776	358.280330373059	742.627634655820	165.567537476974	382.085554369801	807.317864132133	44.649086116626	357.576457528659	989.322053619057	1086.507929723384	259.081741300818	1168.682927170034	893.247197864522	261.042051467948	828.232374076141	1115.341679103289	855.982464224968	900.166907404543	870.515130580209	918.645346169067	
2	9.281000000000	738.785064893050	1004.247196597982	558.950143270418	936.060013951456	1432.325111387991	381.965198360582	1023.707604564013	1362.639063737801	551.067547001222	927.047564859359	1438.022969549537	716.775072621144	906.408185648585	1494.408738163062	539.106672723252	968.372432627597	941.293102117781	680.611719916735	956.526766706654	959.789316720941	407.090235120353	1013.189631146003	740.458131053776	645.390569871450	930.043677076624	626.737353716851	694.952835833765	1011.740920318991	579.256771478073	616.105059100625	1012.809908296366	488.920086128861	618.773551049752	1021.254334221341	757.372895393783	433.179044760485	956.438663059728	635.057301125055	359.213446881636	1049.512533558671	559.701481784956	422.876174417822	1047.259939297045	469.716317752955	415.483977273428	972.235980413649	413.422947117983	406.186914083058	827.626045411980	388.891706191257	354.704818034668	799.045673257596	261.269114019527	407.033681884931	978.504451706352	401.146372479700	619.241295232681	899.777867416728	297.960016099644	672.292415773016	940.122238960752	204.884387315103	606.281063300086	798.890446473007	44.191522778845	563.322744296345	970.105569288166	97.509395192158	608.044906312248	879.026533999821	37.578925285591	641.611794746005	1087.493666466231	42.287443685520	640.576592043394	600.596756116987	216.253084006158	440.403662905698	655.299847340078	166.332956898509	360.809398641181	760.878941130652	164.640764245653	383.689338873686	828.379258517444	46.199378049603	355.899465483998	973.403187055562	1081.583569073894	264.356262701835	1130.874560391483	875.428675373091	266.581814388112	841.917116669682	1111.769469230988	858.871473768359	923.408870618351	870.400704834388	921.629291778389	
3	9.302000000000	737.429995604775	1002.426720541576	562.737356058637	930.863531879732	1430.116585382014	382.213762819267	1020.940364194538	1361.748525940696	550.551355060968	926.380293537386	1437.352124262016	717.317730451382	903.600394972188	1493.158329229502	539.508463262148	968.261593657499	940.743772784459	682.616538738995	954.423574019600	959.018929471034	409.263995529039	1013.001677525898	739.456178279508	646.347421661914	930.491911321613	625.273986172969	696.045610168832	1011.297304179949	578.114421105817	616.281264704176	1012.297965532038	487.103038985100	618.597776372593	1024.085984655527	760.564264160022	436.986929541487	963.941002626948	636.595123835512	362.595148018570	1058.681532370655	564.101403211702	427.307677347265	1059.301323753139	473.880557640507	419.521858915097	985.622605295868	415.922779927986	409.378899674332	841.156969157582	388.392152427525	358.761741428570	816.452168863586	259.517161602150	409.661211891052	976.601909172448	399.467002752674	619.118169194226	896.901505679763	297.182038300631	672.573447696485	935.245570318913	203.879159999779	605.999497479462	792.143073773688	44.072456211053	563.394541178361	963.339154594384	97.410632756910	607.949185633161	872.304214325525	37.496451816777	641.697743796343	1080.815881736019	42.371828046636	640.581569208179	619.707605928981	208.117790298411	444.306571499885	674.939211900699	161.707061241703	363.162225817373	780.618235767099	162.903017976799	385.122206743778	851.388658508745	47.434636432539	353.955918100164	956.629787979503	1076.496506378923	269.679758513896	1091.691905982277	857.923049312390	272.434820960654	855.941908290701	1108.075757434669	861.574914713524	948.011820147078	870.724082326825	924.021271263718	
4	9.323000000000	735.999899614669	1000.328995270949	566.536421913373	925.653383937613	1427.594549032382	382.362063057552	1018.181360957558	1360.536996614728	549.910736543009	925.797283979743	1436.461884414547	717.736283393053	900.835992825258	1491.650151945469	539.764050422380	968.037242014815	939.961012165343	684.557108320138	952.130128909199	958.010541471817	411.373935256177	1012.941335101009	738.369308726223	647.243916353070	931.222454586237	623.625918464640	697.050410437266	1011.204814443660	576.877993731728	616.370783948913	1012.211217386964	485.136807245231	618.336924388334	1026.565581060460	763.483200256559	440.647560354233	971.008438616100	637.955943558073	365.904098555412	1067.273204463731	568.287968175829	431.701931456677	1070.818965888821	477.988354699705	423.520281803886	998.814792176539	418.278724956096	412.455150445401	854.821509125329	386.975362528334	362.604160881117	834.746277073033	256.845723141979	412.028083406586	975.013304290325	397.630173319292	618.896832861180	894.260234767976	296.334866537480	672.761308259620	930.471357743981	202.775417546397	605.647110085697	785.338837440526	43.985531448894	563.450723769572	956.515960508694	97.286066381599	607.808767282286	865.527617991027	37.429232553111	641.772286404703	1074.084847772991	42.404396728259	640.589197168364	640.291357868398	198.016664750595	447.833351560680	696.174490802623	155.470792580826	365.172049774140	801.800786778940	160.147239492600	386.271676252169	876.357877497505	48.240078243195	351.774640438597	939.220653704202	1071.420693226784	274.875887893187	1052.003184503116	841.557617651760	278.513586554001	870.013704124551	1104.377720410018	863.902093267017	973.728148863376	871.823206500831	925.407171755876	
5	9.344000000000	734.484447835715	997.963781428202	570.270325384530	920.521212323305	1424.761949058534	382.385655962547	1015.485432274256	1358.964193328954	549.117189162861	925.343523386181	1435.328714351909	717.984494167355	898.181767658251	1489.870889374589	539.834481566622	967.668374288790	938.912914444993	686.363476840143	949.627424283632	956.742340202768	413.343758483464	1012.993186637578	737.194404671366	648.037594280471	932.221762741080	621.794164949108	697.925857651929	1011.472107597091	575.548511359834	616.345923617182	1012.565805838077	483.034229354923	617.968828655890	1028.531245081294	766.021625153607	444.040003564467	977.365604072130	639.085599528528	369.032124002952	1074.957898092825	572.145499611161	435.925085931291	1081.440881516739	481.971765639360	427.359073458120	1011.494305013341	420.446615194150	415.311349614020	868.428228208568	384.505952307844	366.054599154647	853.794068484587	253.198660388822	414.016059916525	973.776151892185	395.646432996446	618.560365547055	891.902742961972	295.419231147246	672.831618571610	925.876256103817	201.577829121470	605.219043132759	778.580341613208	43.934338837388	563.492084096566	949.730735473220	97.127833247426	607.609478965541	858.796005451491	37.380792896667	641.833067045461	1067.396648787005	42.376874885339	640.599855936578	662.339927711492	185.877434726002	450.771877593495	719.023247537051	147.510211430115	366.705949252037	824.375629555702	156.303200199065	387.067543877611	903.244845872855	48.595034150622	349.449994311449	921.349067077211	1066.540192784655	279.798515455998	1012.561058432320	827.008083126334	284.735264149679	883.945967009446	1100.789959719320	865.706810771912	1000.376395105391	874.071231754926	925.435202200427	
6	9.365000000000	732.867512576547	995.380436098657	573.881994709887	915.528099866141	1421.661695557693	382.273991320442	1012.890981067383	1357.031260689325	548.147994866592	925.057533566189	1433.958701054834	718.029189741609	895.685348193156	1487.841580445900	539.700180434515	967.133971905256	937.598354281245	687.977180044907	946.902868787795	955.228584609619	415.107053753342	1013.101089173912	735.930633647585	648.694064664375	933.412484339465	619.799499508685	698.645606601338	1012.026482386565	574.132348488221	616.187948669252	1013.280967105590	480.821766819618	617.477077927072	1029.861192966326	768.125951933535	447.073743254326	982.809856358841	639.966228263106	371.886196727927	1081.511008832130	575.613716346155	439.853392393101	1090.909504223154	485.803884385990	430.930533582911	1023.430008979051	422.429193073548	417.867022590759	881.862170316593	380.978289614182	368.960627514161	873.457329611499	248.668356676403	415.548185648059	972.845511460952	393.542644445108	618.103467484101	889.803984790967	294.441753110958	672.773326691714	921.476314405142	200.300928876603	604.719206532533	771.928990250486	43.915623010386	563.523838545314	943.034317880043	96.929408401649	607.340100511023	852.165879388383	37.351591266155	641.880080651337	1060.804977490128	42.290573794243	640.613757629357	685.796023124515	171.901209082973	452.954159444023	743.447259829002	137.942329725688	367.679431912194	848.239763727057	151.465290198669	387.489778745643	931.894477050580	48.582718530923	347.140838957935	903.164172636723	1062.047513179484	284.339306999208	974.002166351526	814.754416138501	291.015795744360	897.661032516409	1097.430037665537	866.896836476000	1027.803576114601	877.851598658921	923.848129691804	
